<?xml version="1.0" encoding="UTF-8" standalone="no"?>
<!DOCTYPE svg PUBLIC "-//W3C//DTD SVG 1.1//EN"
 "http://www.w3.org/Graphics/SVG/1.1/DTD/svg11.dtd">
<!-- Generated by graphviz version 2.38.0 (20140413.2041)
 -->
<!-- Title: G Pages: 1 -->
<svg width="497pt" height="420pt"
 viewBox="0.00 0.00 496.98 420.00" xmlns="http://www.w3.org/2000/svg" xmlns:xlink="http://www.w3.org/1999/xlink">
<g id="graph0" class="graph" transform="scale(1 1) rotate(0) translate(4 416)">
<title>G</title>
<polygon fill="white" stroke="none" points="-4,4 -4,-416 492.977,-416 492.977,4 -4,4"/>
<g id="clust1" class="cluster"><title>cluster_Global</title>
<path fill="none" stroke="gray" d="M75.9885,-44C75.9885,-44 468.977,-44 468.977,-44 474.977,-44 480.977,-50 480.977,-56 480.977,-56 480.977,-392 480.977,-392 480.977,-398 474.977,-404 468.977,-404 468.977,-404 75.9885,-404 75.9885,-404 69.9885,-404 63.9885,-398 63.9885,-392 63.9885,-392 63.9885,-56 63.9885,-56 63.9885,-50 69.9885,-44 75.9885,-44"/>
<text text-anchor="middle" x="272.483" y="-391.2" font-family="Times New Roman,serif" font-size="11.00" fill="gray">Global</text>
</g>
<g id="clust2" class="cluster"><title>cluster_\Slothsoft</title>
<path fill="none" stroke="gray" d="M83.9885,-52C83.9885,-52 460.977,-52 460.977,-52 466.977,-52 472.977,-58 472.977,-64 472.977,-64 472.977,-364 472.977,-364 472.977,-370 466.977,-376 460.977,-376 460.977,-376 83.9885,-376 83.9885,-376 77.9885,-376 71.9885,-370 71.9885,-364 71.9885,-364 71.9885,-64 71.9885,-64 71.9885,-58 77.9885,-52 83.9885,-52"/>
<text text-anchor="middle" x="272.483" y="-363.2" font-family="Times New Roman,serif" font-size="11.00" fill="gray">Slothsoft</text>
</g>
<g id="clust3" class="cluster"><title>cluster_\Slothsoft\Lang</title>
<path fill="none" stroke="gray" d="M91.9885,-60C91.9885,-60 452.977,-60 452.977,-60 458.977,-60 464.977,-66 464.977,-72 464.977,-72 464.977,-336 464.977,-336 464.977,-342 458.977,-348 452.977,-348 452.977,-348 91.9885,-348 91.9885,-348 85.9885,-348 79.9885,-342 79.9885,-336 79.9885,-336 79.9885,-72 79.9885,-72 79.9885,-66 85.9885,-60 91.9885,-60"/>
<text text-anchor="middle" x="272.483" y="-335.2" font-family="Times New Roman,serif" font-size="11.00" fill="gray">Lang</text>
</g>
<!-- \\Slothsoft\\Lang\\TranslatorStream -->
<g id="node1" class="node"><title>\\Slothsoft\\Lang\\TranslatorStream</title>
<polygon fill="none" stroke="black" points="456.977,-266 331.977,-266 331.977,-230 456.977,-230 456.977,-266"/>
<text text-anchor="middle" x="394.477" y="-245.2" font-family="Courier,monospace" font-size="11.00">TranslatorStream</text>
</g>
<!-- \\Slothsoft\\Core\\IO\\HTTPStream -->
<g id="node7" class="node"><title>\\Slothsoft\\Core\\IO\\HTTPStream</title>
<ellipse fill="none" stroke="black" cx="129.988" cy="-18" rx="129.977" ry="18"/>
<text text-anchor="middle" x="129.988" y="-14.3" font-family="Times New Roman,serif" font-size="14.00" fill="gray">\Slothsoft\Core\IO\HTTPStream</text>
</g>
<!-- \\Slothsoft\\Lang\\TranslatorStream&#45;&gt;\\Slothsoft\\Core\\IO\\HTTPStream -->
<g id="edge1" class="edge"><title>\\Slothsoft\\Lang\\TranslatorStream&#45;&gt;\\Slothsoft\\Core\\IO\\HTTPStream</title>
<path fill="none" stroke="black" d="M343.048,-229.823C339.038,-227.231 335.271,-224.302 331.977,-221 275.464,-164.36 319.976,-108.933 259.977,-56 250.002,-47.2001 238.079,-40.435 225.567,-35.2348"/>
<polygon fill="none" stroke="black" points="226.498,-31.8442 215.907,-31.5554 224.006,-38.3858 226.498,-31.8442"/>
</g>
<!-- \\Slothsoft\\Lang\\Translator -->
<g id="node2" class="node"><title>\\Slothsoft\\Lang\\Translator</title>
<polygon fill="none" stroke="black" points="171.988,-320 87.9885,-320 87.9885,-284 171.988,-284 171.988,-320"/>
<text text-anchor="start" x="95.9885" y="-305.2" font-family="Courier,monospace" font-size="11.00">«abstract»</text>
<text text-anchor="start" x="95.9885" y="-293.2" font-family="Courier,monospace" font-size="11.00">Translator</text>
</g>
<!-- \\Slothsoft\\Lang\\TranslatorJaEn -->
<g id="node3" class="node"><title>\\Slothsoft\\Lang\\TranslatorJaEn</title>
<polygon fill="none" stroke="black" points="449.977,-320 338.977,-320 338.977,-284 449.977,-284 449.977,-320"/>
<text text-anchor="middle" x="394.477" y="-299.2" font-family="Courier,monospace" font-size="11.00">TranslatorJaEn</text>
</g>
<!-- \\Slothsoft\\Lang\\TranslatorJaEn&#45;&gt;\\Slothsoft\\Lang\\Translator -->
<g id="edge2" class="edge"><title>\\Slothsoft\\Lang\\TranslatorJaEn&#45;&gt;\\Slothsoft\\Lang\\Translator</title>
<path fill="none" stroke="black" d="M338.77,-302C292.771,-302 227.49,-302 182.434,-302"/>
<polygon fill="none" stroke="black" points="182.292,-298.5 172.292,-302 182.292,-305.5 182.292,-298.5"/>
</g>
<!-- \\Slothsoft\\Lang\\Vocabulary -->
<g id="node4" class="node"><title>\\Slothsoft\\Lang\\Vocabulary</title>
<polygon fill="none" stroke="black" points="436.477,-212 352.477,-212 352.477,-176 436.477,-176 436.477,-212"/>
<text text-anchor="middle" x="394.477" y="-191.2" font-family="Courier,monospace" font-size="11.00">Vocabulary</text>
</g>
<!-- \\Slothsoft\\Lang\\Translation -->
<g id="node5" class="node"><title>\\Slothsoft\\Lang\\Translation</title>
<polygon fill="none" stroke="black" points="439.977,-158 348.977,-158 348.977,-122 439.977,-122 439.977,-158"/>
<text text-anchor="middle" x="394.477" y="-137.2" font-family="Courier,monospace" font-size="11.00">Translation</text>
</g>
<!-- \\Slothsoft\\Lang\\GrammarJa -->
<g id="node6" class="node"><title>\\Slothsoft\\Lang\\GrammarJa</title>
<polygon fill="none" stroke="black" points="432.977,-104 355.977,-104 355.977,-68 432.977,-68 432.977,-104"/>
<text text-anchor="middle" x="394.477" y="-83.2" font-family="Courier,monospace" font-size="11.00">GrammarJa</text>
</g>
</g>
</svg>
